# xmcd
#
# Track frame offsets:
#	150
#	16888
#	45206
#	64026
#	84568
#	102052
#	130846
#	145547
#	163797
#	184151
#	203806
#	217775
#
# Disc length: 3330 seconds
#
# Revision: 0
# Processed by: cddbd v1.5.2PL0 Copyright (c) Steve Scherf et al.
# Submitted via: audiograbber 1.83.01
#
DISCID=930d000c
DTITLE=Mark Lanegan Band - Blues Funeral
DYEAR=2012
DGENRE=Indie
TTITLE0=The Gravediggers Song
TTITLE1=Bleeding Muddy Waters
TTITLE2=Gray Goes Black
TTITLE3=St Louis Elegy
TTITLE4=Riot in my House
TTITLE5=Ode to Sad Disco
TTITLE6=Phantasmagoria Blues
TTITLE7=Quiver Syndrome
TTITLE8=Harborview Hospital
TTITLE9=Leviathan
TTITLE10=Deep Black Vanishing Train
TTITLE11=Tiny Grain of Truth
EXTD=
EXTT0=
EXTT1=
EXTT2=
EXTT3=
EXTT4=
EXTT5=
EXTT6=
EXTT7=
EXTT8=
EXTT9=
EXTT10=
EXTT11=
PLAYORDER=
